<svg width="32" height="32" viewBox="0 0 32 32" fill="none" xmlns="http://www.w3.org/2000/svg">
    <g clip-path="url(#a)">
        <mask id="b" style="mask-type:luminance" maskUnits="userSpaceOnUse" x="0" y="0" width="32" height="32">
            <path d="M24 0H8A8 8 0 000 8v16a8 8 0 008 8h16a8 8 0 008-8V8a8 8 0 00-8-8" fill="#fff"></path>
        </mask>
        <g mask="url(#b)">
            <path d="M24 0H8A8 8 0 000 8v16a8 8 0 008 8h16a8 8 0 008-8V8a8 8 0 00-8-8" fill="oklch(57.5934% 0.247012 287.240256)"></path>
            <path d="M24 0H8A8 8 0 000 8v16a8 8 0 008 8h16a8 8 0 008-8V8a8 8 0 00-8-8" fill="url(#c)"></path>
            <path fill-rule="evenodd" clip-rule="evenodd"
                  d="m22.258 20.467-5.55-6.839a1 1 0 00-1.568.02l-5.023 6.521a1 1 0 01-.793.39H7.17a1 1 0 01-.78-1.626l8.748-10.919a1 1 0 011.556-.006l9.125 11.198a1 1 0 01-.775 1.631h-2.01a1 1 0 01-.776-.37m-5.59-1.484 2.59 2.953c.567.646.108 1.659-.751 1.659h-4.922a1 1 0 01-.785-1.62l2.331-2.953a1 1 0 011.537-.04"
                  fill="url(#d)"></path>
        </g>
        <path d="M24 .666H8A7.333 7.333.0 00.667 8v16A7.333 7.333.0 008 31.333h16A7.333 7.333.0 0031.334 24V8A7.333 7.333.0 0024 .666z"
              stroke="url(#e)" stroke-width="2"></path>
    </g>
    <defs>
        <linearGradient id="c" x1="29" y1="2" x2="3" y2="29.5" gradientUnits="userSpaceOnUse">
            <stop stop-opacity="0"></stop>
            <stop offset="1" stop-opacity=".38"></stop>
        </linearGradient>
        <linearGradient id="d" x1="16.107" y1="7.64" x2="16.107" y2="23.595" gradientUnits="userSpaceOnUse">
            <stop stop-color="#fff"></stop>
            <stop offset="1" stop-color="#fff" stop-opacity=".6"></stop>
        </linearGradient>
        <linearGradient id="e" x1="16" y1="0" x2="16" y2="32" gradientUnits="userSpaceOnUse">
            <stop stop-color="#fff" stop-opacity=".28"></stop>
            <stop offset="1" stop-color="#fff" stop-opacity=".04"></stop>
        </linearGradient>
        <clipPath id="a">
            <path fill="#fff" d="M0 0h32v32H0z"></path>
        </clipPath>
    </defs>
</svg>